<?xml version="1.0" standalone="no"?>
<!DOCTYPE svg PUBLIC "-//W3C//DTD SVG 20010904//EN"
 "http://www.w3.org/TR/2001/REC-SVG-20010904/DTD/svg10.dtd">
<svg version="1.0" xmlns="http://www.w3.org/2000/svg"
 width="375.000000pt" height="375.000000pt" viewBox="0 0 375.000000 375.000000"
 preserveAspectRatio="xMidYMid meet">

<style>
    /* Define CSS styles for the SVG paths */
    .logo-path {
        fill: #d3cedc; 
    }
</style>

<g transform="translate(0.000000,375.000000) scale(0.100000,-0.100000)"
fill="#000000" stroke="none">
<path class="logo-path" d="M1695 3479 c-497 -52 -929 -403 -1078 -875 -75 -236 -77 -518 -6
-758 38 -128 143 -326 226 -425 l29 -34 219 125 220 125 5 399 c6 445 4 436
77 491 31 24 46 28 98 28 52 0 67 -4 99 -29 21 -16 47 -48 58 -72 l19 -44 374
0 c355 0 374 -1 380 -19 3 -10 3 -26 -1 -35 -6 -14 -43 -16 -380 -16 -367 0
-374 0 -374 -20 0 -20 7 -20 338 -20 268 0 342 -3 357 -14 16 -11 17 -22 12
-84 -25 -301 -373 -490 -647 -352 l-58 29 -5 -272 c-5 -302 -11 -338 -74 -459
-19 -36 -50 -85 -70 -108 -19 -22 -34 -42 -32 -44 5 -3 92 -21 173 -36 163
-28 429 0 601 65 510 192 835 656 835 1194 0 547 -346 1026 -866 1200 -160 54
-364 77 -529 60z"/>
<path class="logo-path" d="M1030 480 l0 -170 30 0 30 0 0 128 1 127 47 -128 c43 -117 49 -128
70 -125 20 3 30 20 68 122 24 65 46 122 50 125 3 3 3 -51 -1 -121 l-7 -128 36
0 36 0 0 171 0 170 -46 -3 -47 -3 -40 -117 c-22 -65 -44 -118 -48 -118 -8 0
-29 53 -69 173 l-23 67 -43 0 -44 0 0 -170z"/>
<path class="logo-path" d="M2270 594 c0 -17 -6 -28 -20 -31 -11 -3 -20 -13 -20 -23 0 -10 9 -20
20 -23 18 -5 20 -14 20 -90 0 -100 10 -117 71 -117 32 0 39 4 39 19 0 13 -8
21 -22 23 -21 3 -23 9 -26 85 -3 78 -2 82 20 85 30 4 30 32 1 36 -18 3 -23 10
-23 33 0 26 -3 29 -30 29 -26 0 -30 -4 -30 -26z"/>
<path class="logo-path" d="M1815 563 c-11 -3 -26 -10 -34 -17 -11 -8 -15 -8 -18 2 -3 6 -18 12
-34 12 l-29 0 0 -125 0 -125 30 0 30 0 0 90 c0 84 2 91 24 105 19 13 29 14 45
5 19 -10 21 -20 21 -105 l0 -95 35 0 35 0 -3 105 c-2 89 -6 108 -22 124 -23
22 -52 30 -80 24z"/>
<path class="logo-path" d="M2054 560 c-41 -9 -52 -16 -68 -48 -30 -57 -24 -131 13 -171 25 -27
36 -31 81 -31 28 0 60 5 71 10 29 16 49 64 49 117 0 89 -61 140 -146 123z m78
-74 c4 -6 8 -30 8 -53 0 -45 -25 -83 -55 -83 -64 0 -77 143 -15 162 17 6 51
-9 62 -26z"/>
<path class="logo-path" d="M2490 557 c-91 -31 -108 -175 -28 -231 54 -38 194 -5 159 38 -12 14
-15 14 -34 1 -12 -8 -32 -15 -45 -15 -27 0 -76 45 -67 61 4 6 34 10 68 9 97
-2 97 -3 97 25 0 87 -70 139 -150 112z m71 -55 c35 -29 20 -48 -35 -44 -51 4
-60 21 -24 46 28 20 31 20 59 -2z"/>
<path class="logo-path" d="M1440 533 c4 -16 24 -73 43 -127 37 -107 37 -132 0 -149 -16 -7 -23
-17 -21 -31 2 -17 9 -20 33 -18 17 2 36 9 43 16 13 12 122 308 122 329 0 4
-14 7 -32 5 -30 -3 -33 -7 -51 -68 -10 -36 -22 -69 -27 -73 -4 -5 -18 25 -30
67 -23 75 -23 76 -56 76 -31 0 -32 -1 -24 -27z"/>
</g>
</svg>
